
<svg xmlns="http://www.w3.org/2000/svg" version="1.1" xmlns:xlink="http://www.w3.org/1999/xlink" preserveAspectRatio="none" x="0px" y="0px" width="512px" height="512px" viewBox="0 0 512 512">
<defs>
<linearGradient id="Gradient_1" gradientUnits="userSpaceOnUse" x1="-0.125" y1="0.32499999999998863" x2="511.225" y2="511.675" spreadMethod="pad">
<stop  offset="7.8431372549019605%" stop-color="#9F53CC"/>

<stop  offset="92.15686274509804%" stop-color="#29B0E2"/>
</linearGradient>
</defs>

<g id="BG">
<g>
<g>
<g>
<path fill="url(#Gradient_1)" stroke="none" d="
M 512 512
L 512 0 0 0 0 512 512 512 Z"/>
</g>
</g>
</g>
</g>

<g id="LINES">
<g>
<g>
<path stroke="#FFFFFF" stroke-width="13" stroke-linejoin="round" stroke-linecap="round" fill="none" d="
M 209.2 149.05
L 209.2 114.1
Q 209.2 96.3 221.75 83.7 234.35 71.15 252.15 71.15
L 405.25 71.15
Q 423.05 71.15 435.6 83.7 448.2 96.3 448.2 114.1
L 448.2 155.7
Q 448.2 173.5 435.6 186.05 423.05 198.65 405.25 198.65
L 315.15 198.65
M 106.4 280.15
L 106.4 179.05
Q 106.75 165.05 118.7 162.9 120.15 162.65 121.55 162.6 121.75 162.55 121.95 162.55 122.55 162.55 123.2 162.65 124.15 162.7 125.15 162.9 137.1 165.05 137.45 179.05
L 137.45 271.65
Q 139.65 274.1 141.45 271.65
L 141.875 181.45
Q 141.8818359375 172.8033203125 141.9 164.15 142.25 150.15 154.2 148 155.65 147.75 157.05 147.7 157.25 147.65 157.45 147.65 158.05 147.65 158.7 147.75 159.65 147.8 160.65 148 172.6 150.15 172.95 164.15
L 172.95 256.75
Q 175.1375 259.1875 176.95 256.75
L 176.95 186.4
Q 177.146484375 178.5392578125 181 174.425 184.0095703125 171.1927734375 189.25 170.25 190.69765625 169.9982421875 192.1 169.925 192.2884765625 169.9076171875 192.475 169.9 193.1041015625 169.9232421875 193.75 169.975 194.7107421875 170.07421875 195.7 170.25 207.6740234375 172.3796875 208 186.375
L 208 230.65
Q 214.0349609375 216.76328125 226.725 219 239.4240234375 221.237109375 239.05 236.75
L 239.05 317.85
Q 240.15 338.6 223.05 358.85
L 218.05 364.65
Q 213.7 369.45 213.5 376.3
L 213.5 447.1
M 153.9 328.65
Q 147.689453125 304.1080078125 116.55 293.5 109.8642578125 291.2154296875 105.75 286.3
L 85.35 252.95
Q 81.9142578125 247.889453125 75.85 247.1 67.54453125 246.0287109375 62.05 254.45 59.1755859375 258.5978515625 60.2 264.5
L 75.85 312.5
Q 81.6822265625 334.8375 92 344.5 98.3400390625 351.6103515625 107.85 358.7 111.0009765625 360.595703125 114.3 365.225 117.586328125 369.84921875 117.15 377.15
L 117.15 447.1
M 208 269.1
L 208 230.65"/>
</g>

<g>
<path stroke="#FFFFFF" stroke-width="13" stroke-linejoin="miter" stroke-linecap="round" stroke-miterlimit="3" fill="none" d="
M 315.15 198.65
L 272.4 241.4 272.4 198.65 253.85 198.65"/>
</g>
</g>
</g>
</svg>
