
<svg xmlns="http://www.w3.org/2000/svg" version="1.1" xmlns:xlink="http://www.w3.org/1999/xlink" preserveAspectRatio="none" x="0px" y="0px" width="512px" height="512px" viewBox="0 0 512 512">
<defs/>

<g id="LINES">
<g transform="matrix( 1.659942626953125, 0, 0, 1.659942626953125, 7.8,-215.65) ">
<g transform="matrix( 0.6024169921875, 0, 0, 0.6024169921875, -4.65,129.9) ">
<path stroke="#FFFFFF" stroke-width="13" stroke-linejoin="round" stroke-linecap="round" fill="none" d="
M 184.41789550781252 249.38292694091794
L 184.41789550781252 81.56272735595704
Q 184.9988754272461 58.32353057861329 204.83518981933597 54.75465393066409 207.242106628418 54.33966827392581 209.56602630615234 54.256671142578085 209.89801483154298 54.173674011230474 210.23000335693362 54.173674011230474 211.22596893310546 54.173674011230474 212.30493164062503 54.33966827392581 213.8818771362305 54.42266540527342 215.5418197631836 54.75465393066409 235.37813415527344 58.32353057861329 235.95911407470703 81.56272735595704
L 235.95911407470703 235.27341461181638
Q 239.61098785400392 239.34027404785158 242.59888458251953 235.27341461181638
L 243.30436019897462 85.54658966064451
Q 243.31570746302606 71.19359746575358 243.34585876464845 56.8295822143555 243.92683868408204 33.59038543701172 263.7631530761719 30.021508789062494 266.17006988525395 29.606523132324213 268.4939895629883 29.523526000976545 268.8259780883789 29.440528869628906 269.15796661376953 29.440528869628906 270.15393218994143 29.440528869628906 271.23289489746094 29.606523132324213 272.80984039306645 29.68952026367188 274.4697830200196 30.021508789062494 294.30609741210935 33.59038543701172 294.88707733154297 56.8295822143555
L 294.88707733154297 210.54026947021484
Q 298.51820182800293 214.58637962341308 301.52684783935547 210.54026947021484
L 301.52684783935547 93.76330566406253
Q 301.8530006289482 80.7149246275425 308.24961547851564 73.88549270629883 313.245329529047 68.52018205523487 321.9441421508789 66.95523223876953 324.347168469429 66.53732871413231 326.6749786376953 66.41575088500977 326.98783891797063 66.38689641356464 327.2974571228027 66.37425231933597 328.34172962307935 66.41283301711078 329.413883972168 66.49874801635738 331.0086608827114 66.66344544887542 332.65077209472656 66.95523223876953 352.5269640147686 70.49039130210875 353.06806640625 93.72180709838867
L 353.06806640625 167.2157669067383
Q 363.08575531840324 144.1646105051041 384.15049209594724 147.87743530273437 405.23014242053034 151.59090851545332 404.60928497314455 177.34141693115234
L 404.60928497314455 311.9627639770508
Q 406.435221862793 346.40657348632817 378.05020294189455 380.02041168212895
L 369.75048980712893 389.64807891845703
Q 362.5297393798828 397.615803527832 362.1977508544922 408.98641052246103
L 362.1977508544922 526.5103485107422
M 263.2651702880859 329.89014434814453
Q 252.95601879358293 289.1518453657627 201.2663131713867 271.5431610107422 190.16836472153665 267.7509053647518 183.33893280029298 259.59157409667966
L 149.47610321044922 204.23248748779295
Q 143.7729682981968 195.83227001428602 133.70664825439454 194.52182312011715 119.92004663944245 192.74354473948475 110.7994400024414 206.72240142822264 106.02807757258415 213.60759704709054 107.72854614257812 223.40482482910156
L 133.70664825439454 303.0820709228516
Q 143.3878097355366 340.161039352417 160.5147216796875 356.2002349853516 171.03882277607917 368.0030106365681 186.82481231689454 379.7714202880859 192.05525262951852 382.9181787133217 197.53144226074218 390.6025459289551 202.98655840158463 398.278483748436 202.2622787475586 410.3973617553711
L 202.2622787475586 526.5103485107422
M 353.06806640625 231.04056091308595
L 353.06806640625 167.2157669067383"/>
</g>
</g>
</g>
</svg>
